<svg id="Layer_1" data-name="Layer 1" xmlns="http://www.w3.org/2000/svg" viewBox="0 0 2705.51 2743.02"><defs><style>.cls-1{fill:#231f20;}.cls-2{fill:none;stroke:#231f20;stroke-miterlimit:10;stroke-width:50px;}</style></defs><path class="cls-1" d="M2063,311.26c183.21,0,372.28,79.94,520.22,246.76,298.49,336.59,252.6,830.3-24.51,1182.64l-923.6,1093.6c-43.44,47.93-94.56,72-145.3,72-50.35,0-100.33-23.74-142-71.47-300.56-344.11-895.84-1087.25-900.59-1092.7-277.75-318-290.68-845.51-28.91-1178.33,131.25-166.85,314.24-248.2,499.26-248.19,184,0,370.08,80.51,509.08,237.44,6.25,7.06,74.2,88.58,74.2,88.58l69.44-88.26c125-158.94,305.83-242.09,492.74-242.09m0-74a698.06,698.06,0,0,0-154.68,17.32,692.14,692.14,0,0,0-281,136.25,725.85,725.85,0,0,0-115.2,116.77l-13,16.53C1490.55,514,1484,506.24,1482,504a813.83,813.83,0,0,0-123.57-113.63,770.63,770.63,0,0,0-138.69-82.16,740.63,740.63,0,0,0-148.69-49.82,716.24,716.24,0,0,0-153.51-16.76,692.93,692.93,0,0,0-302,68.89A707,707,0,0,0,479.14,397a757.19,757.19,0,0,0-119,121,906.25,906.25,0,0,0-92.93,145,977.11,977.11,0,0,0-64.59,158.72A1042.76,1042.76,0,0,0,165.82,989.1a1082,1082,0,0,0,8.38,341.73,1038.26,1038.26,0,0,0,45,165.14,970.85,970.85,0,0,0,72.32,155,899.51,899.51,0,0,0,99.24,138.94c2.24,2.76,10.48,13,20.69,25.68,400.5,497.54,705,866.81,880.64,1067.87,26.91,30.8,57.4,54.77,90.63,71.25,34.17,16.94,70.22,25.54,107.13,25.54s73.24-8.61,107.92-25.57c33.49-16.39,64.51-40.19,92.21-70.76l.87-1,.84-1,923.59-1093.59.83-1,.8-1c73.56-93.53,132-196.3,173.68-305.45,41.87-109.62,65.48-222.14,70.2-334.42,4.88-116.3-10.7-229-46.33-334.87-37.56-111.68-96.72-213.54-175.83-302.75a867.73,867.73,0,0,0-129-119.1,790.55,790.55,0,0,0-142.31-84.95,743,743,0,0,0-150.59-50.78A714.91,714.91,0,0,0,2063,237.26Z" transform="translate(-156.11 -237.26)"/><path class="cls-2" d="M2260.48,1180.46c-32.46-82.78-73.64-159.73-125.1-227.69-80.08-105.77-185-189.76-320.76-240a807,807,0,0,0-150.33-39.3c-51.15-8.4-105.76-12.8-164-12.81h-.16c-58.22,0-112.78,4.4-163.89,12.78a808.14,808.14,0,0,0-150.36,39.29c-135.67,50.24-240.6,134.15-320.69,239.84h0C813.7,1020.47,772.5,1097.39,740,1180.15c-56.42,143.73-86.51,305-98.47,467.37,118.17-55.65,294-13.06,392.68,19.16a132.71,132.71,0,0,0,123.37-22.33c74.54-59.18,204-117.62,342.84-117.62s268.29,58.44,342.83,117.62a132.72,132.72,0,0,0,123.37,22.33c98.53-32.17,274-74.69,392.18-19.41C2346.85,1485.14,2316.79,1324,2260.48,1180.46ZM1164.7,830.19c55.22,0,100,37.5,100,83.76s-44.77,83.76-100,83.76-100-37.5-100-83.76S1109.48,830.19,1164.7,830.19Zm108.71,533.69a146.4,146.4,0,1,1-292.79,0v-16.13l-28.34-107.83A104.56,104.56,0,0,0,881,1166.09l-41.72-12.35-21.74-6.44,50.26-14.88,13.2-3.91a104.57,104.57,0,0,0,71.28-73.84l28.34-107.83L1009,1054.67a105.25,105.25,0,0,0,14.47,32h0a104,104,0,0,0,55.28,41.32,146.44,146.44,0,0,1,194.69,138.25Zm565-533.69c55.23,0,100,37.5,100,83.76s-44.76,83.76-100,83.76-100-37.5-100-83.76S1783.23,830.19,1838.45,830.19Zm181.47,533.69a146.4,146.4,0,1,1-292.79,0v-97.59a146.4,146.4,0,1,1,292.79,0Z" transform="translate(-156.11 -237.26)"/><path class="cls-2" d="M2365.13,1822c0,1.85,0,3.69,0,5.53s0,3.67-.08,5.5q-.06,4-.2,7.92l-.09,2.74c-.09,2.4-.2,4.78-.33,7.16,0,.77-.07,1.54-.12,2.3-.07,1.41-.16,2.82-.25,4.23-.1,1.64-.22,3.28-.34,4.92s-.25,3.27-.39,4.91-.3,3.54-.47,5.31c-.15,1.48-.29,3-.45,4.42-.19,1.79-.39,3.58-.6,5.36-.18,1.58-.37,3.16-.58,4.74-.18,1.37-.36,2.75-.55,4.11a2.89,2.89,0,0,1,0,.29c-.13,1-.27,2-.42,2.93-.06.46-.13.92-.2,1.38-.25,1.68-.51,3.35-.78,5s-.52,3.12-.79,4.68c0,0,0,0,0,.08-.27,1.53-.54,3-.83,4.57q-.85,4.64-1.83,9.21c-.32,1.53-.66,3-1,4.57s-.69,3-1.05,4.53-.71,2.94-1.08,4.41c0,.22-.11.44-.16.66l-1,3.79-.09.32c-.38,1.42-.76,2.84-1.16,4.25s-.79,2.77-1.2,4.15a6.13,6.13,0,0,1-.18.61c-.06.23-.13.45-.2.67-.33,1.13-.67,2.25-1,3.37s-.74,2.38-1.13,3.57c-.15.49-.31,1-.47,1.46q-.6,1.83-1.23,3.66-1.45,4.32-3.05,8.56-2.38,6.39-5,12.63c-1.17,2.78-2.39,5.53-3.65,8.27s-2.55,5.46-3.9,8.15c-.67,1.34-1.35,2.69-2,4q-4.14,8-8.8,15.81c-.78,1.3-1.56,2.59-2.36,3.87-1.59,2.58-3.22,5.13-4.92,7.67s-3.4,5-5.18,7.54q-1.32,1.86-2.69,3.72c-.69.94-1.39,1.88-2.1,2.81-1,1.29-2,2.58-3,3.85-.28.37-.57.74-.86,1.1-.64.83-1.3,1.65-2,2.46s-1.09,1.35-1.64,2q-2.43,3-5,5.9-1.53,1.79-3.1,3.54c-1.05,1.18-2.11,2.34-3.18,3.51s-2.15,2.32-3.24,3.47-2.2,2.3-3.32,3.45-2.25,2.28-3.39,3.41-2.29,2.26-3.46,3.38-2.34,2.24-3.53,3.35-2.4,2.22-3.61,3.32l-3.68,3.29q-1.77,1.54-3.57,3.08c-1.32,1.14-2.67,2.27-4,3.39l-1.94,1.6c-1.31,1.07-2.62,2.13-4,3.18q-3.73,3-7.6,5.87l-2.59,1.93c-1.39,1-2.8,2.05-4.22,3.06-.7.51-1.42,1-2.13,1.52q-6.43,4.54-13.23,8.95-2.26,1.47-4.56,2.92l-2.32,1.45q-2.07,1.29-4.19,2.57-3.8,2.29-7.68,4.54l-2.39,1.38q-4.92,2.79-10,5.53c-1.43.77-2.86,1.54-4.31,2.3l-3.36,1.75-2.6,1.33q-3.93,2-7.93,3.95l-2.68,1.3q-6.75,3.26-13.74,6.38-2.8,1.26-5.65,2.5l-5.73,2.46c-2.89,1.23-5.8,2.44-8.76,3.63q-8.86,3.59-18.12,7l-6.07,2.23-6.45,2.29-6.4,2.21q-16.11,5.49-33.35,10.55l-5,1.45-5.46,1.55q-3.53,1-7.09,2l-7.18,1.92q-12.23,3.24-25,6.25-6.12,1.44-12.35,2.85c-3.86.87-7.74,1.73-11.67,2.56q-14.42,3.09-29.47,5.94l-3.52.66-.94.18-6.58,1.2-.87.16-7.53,1.34-4.24.73-5.18.88-2.77.47-2.46.4-6.8,1.09c-1.39.23-2.8.45-4.2.66q-6.64,1-13.41,2l-9,1.3-4.52.64q-9.07,1.26-18.34,2.46l-4.65.59q-9.33,1.18-18.87,2.28l-4.79.56q-45.86,5.21-96.64,8.78-26,1.82-53.26,3.21h0c1.21-1.3,2.4-2.62,3.58-3.94,1-1.13,2-2.27,3-3.41s2-2.29,2.93-3.45,1.92-2.32,2.87-3.49,1.89-2.35,2.82-3.54c.8-1,1.58-2,2.36-3,.27-.34.53-.69.79-1,.66-.87,1.32-1.74,2-2.62.89-1.17,1.75-2.36,2.6-3.54q1.08-1.46,2.1-2.94,3.18-4.49,6.2-9.08c.42-.62.83-1.24,1.22-1.86.66-1,1.31-2,2-3l.86-1.36c.53-.84,1.06-1.68,1.58-2.53.35-.56.7-1.12,1-1.68.77-1.25,1.52-2.51,2.27-3.77q4.48-7.51,8.61-15.23c.57-1,1.12-2.08,1.66-3.12.65-1.22,1.29-2.45,1.91-3.68,44.54-86.72,58.41-187.34,62.72-239.86-2.09.1-4.19.17-6.29.19-.69,0-1.38,0-2.07,0a168.11,168.11,0,0,1-24.52-1.8l-1.78-.27-1.78-.29-265.26-45h0l-265.28,45-1.76.29-1.13.17-.64.1-.36.05c-1,.15-2.1.3-3.14.43a167,167,0,0,1-21,1.32c-.71,0-1.41,0-2.12,0-2.08,0-4.17-.09-6.24-.19,5,60.33,22.52,184.14,84.7,277.44v-.06a312.7,312.7,0,0,0,30.34,38.81h0q-15.36-.78-30.3-1.7-63.54-3.91-119.54-10.28-7.2-.81-14.28-1.68t-14-1.75q-9.27-1.2-18.34-2.46t-17.93-2.6q-8.85-1.33-17.51-2.74l-4.32-.71-8.55-1.44-4.24-.73q-8.45-1.48-16.7-3-18.57-3.48-36.13-7.3-5.85-1.26-11.6-2.59l-3.82-.88q-26.66-6.2-51-13.22l-3.46-1q-17.26-5.05-33.36-10.54l-4.81-1.66-4.75-1.67-1.13-.4-5.13-1.86q-7.79-2.85-15.27-5.8l-3-1.18q-6-2.37-11.73-4.82t-11.38-5c-1.86-.84-3.72-1.68-5.56-2.53l-3.5-1.62q-2.35-1.11-4.68-2.23l-2.69-1.3q-2.67-1.3-5.3-2.62t-5.22-2.66q-3.88-2-7.68-4.05l-5-2.74c-1.66-.92-3.3-1.85-4.94-2.78s-3.24-1.86-4.85-2.8c-.8-.47-1.6-.94-2.39-1.42q-2.37-1.41-4.71-2.84l0,0-2.31-1.43c-1.36-.84-2.7-1.69-4-2.54-4-2.55-7.91-5.14-11.74-7.76-.73-.5-1.46-1-2.18-1.51-1.4-1-2.79-2-4.17-3q-7.5-5.35-14.53-10.94-2-1.57-3.94-3.18c-2-1.59-3.88-3.2-5.78-4.82-1.26-1.08-2.52-2.16-3.76-3.25q-2.22-1.95-4.38-3.93l-2.17-2-1.22-1.14q-1.76-1.62-3.46-3.3c-1-.94-2-1.91-3-2.87l-.1-.1q-1.73-1.7-3.39-3.41c0-.06-.11-.11-.16-.16-.92-.95-1.84-1.89-2.74-2.85-.2-.2-.39-.41-.59-.62-1-1.09-2.06-2.19-3.08-3.29s-1.88-2.07-2.81-3.11q-3.48-3.87-6.77-7.83c-.91-1.09-1.81-2.18-2.69-3.27s-2-2.42-2.9-3.64-1.7-2.18-2.55-3.29l-.29-.38c-.86-1.14-1.71-2.28-2.56-3.43s-1.53-2.09-2.29-3.15l-1.59-2.25-1.62-2.33c-.86-1.25-1.72-2.52-2.56-3.78s-1.67-2.54-2.49-3.82c-1.5-2.33-3-4.67-4.38-7l-.82-1.38c-.64-1.07-1.26-2.14-1.88-3.21q-1.14-2-2.23-3.94t-2.17-4c-.53-1-1.06-2-1.58-3s-1-2-1.55-3c-.43-.84-.86-1.69-1.28-2.54-1.08-2.19-2.14-4.39-3.16-6.6-.39-.83-.78-1.67-1.15-2.51s-.79-1.75-1.18-2.63c-.61-1.38-1.21-2.76-1.8-4.15s-1.17-2.78-1.73-4.18c-1.14-2.8-2.24-5.61-3.3-8.45s-2.08-5.69-3-8.57c-.51-1.47-1-3-1.49-4.45-.39-1.21-.78-2.42-1.15-3.64-.11-.32-.21-.65-.31-1-.28-.91-.55-1.81-.82-2.72-.22-.72-.44-1.44-.64-2.17q-.61-2.08-1.2-4.2c-.5-1.78-1-3.57-1.45-5.37-.28-1-.54-2.07-.8-3.12-.36-1.42-.71-2.85-1.05-4.28-.72-3-1.41-6-2-9.09s-1.26-6.13-1.83-9.22c-.29-1.52-.56-3-.83-4.57,0,0,0,0,0-.08-.27-1.55-.54-3.11-.79-4.68s-.53-3.34-.78-5c-.07-.46-.14-.92-.2-1.38-.15-1-.29-2-.42-2.93a2.89,2.89,0,0,1,0-.29c-.19-1.37-.37-2.74-.55-4.11-.2-1.57-.4-3.15-.58-4.74-.21-1.78-.41-3.57-.6-5.36-.16-1.47-.3-2.94-.45-4.42-.16-1.77-.32-3.54-.47-5.31s-.27-3.27-.39-4.91-.24-3.28-.34-4.92c-.09-1.41-.18-2.82-.25-4.23-.05-.76-.09-1.53-.12-2.3q-.19-3.55-.33-7.16l-.09-2.74q-.13-3.95-.2-7.92c0-1.83-.07-3.66-.08-5.5s0-3.68,0-5.53q0-6,0-12.08.08-15.64.35-31.36.09-5.43.21-10.88.33-15,.84-30l.27-7.5q.81-21.56,2-43.13c.15-2.83.32-5.67.49-8.51.2-3.44.42-6.88.64-10.33s.45-6.88.69-10.32.48-6.89.74-10.33h0c118.17-55.65,294-13.06,392.68,19.16a132.71,132.71,0,0,0,123.37-22.33c74.54-59.18,204-117.62,342.84-117.62s268.29,58.44,342.83,117.62a132.72,132.72,0,0,0,123.37,22.33c98.53-32.17,274-74.69,392.18-19.41q1.21,16.41,2.18,32.83h0c.08,1.36.16,2.73.23,4.09l.24,4.1q.67,12.32,1.23,24.63l.39,9c.06,1.46.12,2.92.17,4.39.11,2.82.22,5.63.32,8.45l.12,3.51.12,3.51c0,.21,0,.41,0,.62,0,.79.05,1.59.07,2.38q.23,7,.4,13.9c0,1,0,2.09.08,3.14,0,.23,0,.45,0,.67,0,1.67.08,3.35.11,5,.08,3.64.16,7.27.22,10.9q.08,4.62.14,9.22c0,1.23,0,2.45.05,3.68q.12,9.26.16,18.49Q2365.13,1815.9,2365.13,1822Z" transform="translate(-156.11 -237.26)"/><path class="cls-2" d="M1801.89,1927.21c-4.31,52.52-18.18,153.14-62.72,239.86-.62,1.23-1.26,2.46-1.91,3.68-.54,1-1.09,2.08-1.66,3.12q-4.12,7.71-8.61,15.23c-.75,1.26-1.5,2.52-2.27,3.77-.34.56-.69,1.12-1,1.68-.52.85-1,1.69-1.58,2.53l-.86,1.36c-.64,1-1.29,2-2,3-.39.62-.8,1.24-1.22,1.86q-3,4.59-6.2,9.08-1,1.48-2.1,2.94c-.85,1.18-1.71,2.37-2.6,3.54-.64.88-1.3,1.75-2,2.62-.26.34-.52.69-.79,1-.78,1-1.56,2-2.36,3q-1.39,1.79-2.82,3.54c-1,1.17-1.9,2.34-2.87,3.49s-1.94,2.31-2.93,3.45-2,2.28-3,3.41c-1.18,1.32-2.37,2.64-3.58,3.94l-2.54,2.73c-1,1.09-2.08,2.18-3.14,3.26l-2,2c-1,1-2,2-3,3l-.51.49c-.85.82-1.71,1.63-2.57,2.44s-1.87,1.75-2.82,2.61l-.3.28c-1,1-2.1,1.9-3.17,2.84l-2.14,1.86q-1.73,1.48-3.47,2.94-1.53,1.27-3.09,2.52-1.83,1.47-3.69,2.9a1.81,1.81,0,0,1-.23.18c-.15.13-.31.24-.46.35-1,.76-2,1.51-3,2.24-.43.34-.87.66-1.32,1l-1.86,1.35c-.71.52-1.43,1-2.15,1.54-1.13.8-2.27,1.58-3.41,2.36q-3.35,2.25-6.76,4.41-2.94,1.85-5.94,3.61l-2,1.17c-35,20.11-76.89,32.19-127.1,32.2h-.08a287,287,0,0,1-37.81-2.43v0c-63.63-8.38-112-37.86-148.82-77.77a312.7,312.7,0,0,1-30.34-38.81v.06c-62.18-93.3-79.74-217.11-84.7-277.44,2.07.1,4.16.17,6.24.19.71,0,1.41,0,2.12,0a167,167,0,0,0,21-1.32l2.11-.28,1-.15,2.13-.32,1.76-.29,265.28-45h0l265.26,45,1.78.29,1.78.27a168.11,168.11,0,0,0,24.52,1.8c.69,0,1.38,0,2.07,0C1797.7,1927.38,1799.8,1927.31,1801.89,1927.21Z" transform="translate(-156.11 -237.26)"/><path class="cls-2" d="M1973.83,1785.68l-40,63.85a165.33,165.33,0,0,1-132,77.68c-2.09.1-4.19.17-6.29.19-.69,0-1.38,0-2.07,0a168.11,168.11,0,0,1-24.52-1.8c-1.17-.18-2.35-.36-3.52-.56l-265.3-45h0l-265.3,45c-2.34.4-4.69.74-7,1a167,167,0,0,1-21,1.32c-.71,0-1.41,0-2.12,0-2.08,0-4.17-.09-6.24-.19a165.33,165.33,0,0,1-132-77.68l-40-63.85a36.38,36.38,0,0,1,61.68-38.61l40,63.84a92.84,92.84,0,0,0,94.51,42.41l241.11-40.89v-49.7a84.09,84.09,0,0,1-23.18-16.34l-96.85-96.85c-30.15-30.15-8.8-81.71,33.84-81.71h245.29c42.64,0,64,51.56,33.85,81.71l-96.86,96.85a83.9,83.9,0,0,1-23.33,16.41v49.63l241.09,40.89a92.81,92.81,0,0,0,94.53-42.41l40-63.84a36.38,36.38,0,0,1,61.68,38.61Z" transform="translate(-156.11 -237.26)"/><path class="cls-2" d="M1740.17,2240.19v170.42a57,57,0,0,1-113.34,8.77,57.66,57.66,0,0,1-.67-8.77V2292.13l1.17-.68,2-1.17c2-1.17,4-2.37,5.94-3.61q3.42-2.16,6.76-4.41c1.14-.77,2.28-1.56,3.41-2.36l1.26-.89c1.18-.84,2.35-1.68,3.51-2.55s2.36-1.75,3.53-2.67c.15-.11.31-.22.46-.35q2-1.5,3.92-3.08,1.56-1.24,3.09-2.52,1.76-1.44,3.47-2.94l2.14-1.86c1.07-.94,2.12-1.88,3.17-2.84,1.93-1.74,3.82-3.52,5.69-5.33l.51-.49c1-1,2-2,3-3l2-2c1.06-1.08,2.1-2.17,3.14-3.26.86-.9,1.72-1.81,2.56-2.73Q1714.21,2242,1740.17,2240.19Z" transform="translate(-156.11 -237.26)"/><path class="cls-2" d="M1740.17,2165.13v75.06q-26,1.82-53.26,3.21c1.2-1.3,2.39-2.62,3.56-3.94,1-1.13,2-2.27,3-3.41s2-2.29,2.93-3.45,1.92-2.32,2.87-3.49,1.9-2.35,2.82-3.54c.8-1,1.58-2,2.36-3,.27-.34.53-.69.79-1,.66-.87,1.32-1.74,2-2.62.89-1.17,1.75-2.36,2.6-3.54q1.08-1.46,2.1-2.94,3.18-4.49,6.2-9.08c.42-.62.83-1.24,1.22-1.86.66-1,1.31-2,2-3l.86-1.36c.53-.84,1.06-1.68,1.58-2.53.35-.56.7-1.12,1-1.68.77-1.25,1.52-2.51,2.27-3.77q4.48-7.51,8.61-15.23c.57-1,1.12-2.08,1.66-3.12.65-1.22,1.29-2.45,1.91-3.68C1739.51,2166.43,1739.84,2165.78,1740.17,2165.13Z" transform="translate(-156.11 -237.26)"/><path class="cls-2" d="M1462.34,2321.22v210.06a89.58,89.58,0,0,1-179.16,0V2241.7q14.94.91,30.3,1.7C1350.29,2283.32,1398.7,2312.83,1462.34,2321.22Z" transform="translate(-156.11 -237.26)"/><path class="cls-2" d="M2019.92,1266.29v97.59a146.4,146.4,0,1,1-292.79,0v-97.59a146.4,146.4,0,1,1,292.79,0Z" transform="translate(-156.11 -237.26)"/><circle class="cls-2" cx="1754.02" cy="1016.84" r="61"/><ellipse class="cls-2" cx="1682.35" cy="676.7" rx="99.99" ry="83.76"/><path class="cls-2" d="M1838.45,830.19c-55.22,0-100,37.5-100,83.76s44.77,83.76,100,83.76,100-37.5,100-83.76S1893.68,830.19,1838.45,830.19Zm324.89-340.8a120,120,0,0,0-110.56-72.92,118.46,118.46,0,0,0-54.11,13c-120.84,61.31-234,144.3-334.38,244a807,807,0,0,1,150.33,39.3c72-63.2,150-117,232.42-160,51.25,124,81,259.48,88.34,400,51.46,68,92.64,144.91,125.1,227.69C2285.8,939.67,2252.38,698.16,2163.34,489.39Z" transform="translate(-156.11 -237.26)"/><path class="cls-2" d="M1273.41,1266.29v97.59a146.4,146.4,0,1,1-292.79,0v-16.13L1009,1239.92a104.56,104.56,0,0,1,71.28-73.83l63.45-18.79-60.14-19.8c-.51-.15,8.76-2.17,8.26-2.33,15.12-5.28,18.28-5.28,35.2-5.28a146.4,146.4,0,0,1,146.4,146.4Z" transform="translate(-156.11 -237.26)"/><circle class="cls-2" cx="1007.51" cy="1016.84" r="61"/><path class="cls-2" d="M1143.69,1147.3l-63.45,18.79a104.56,104.56,0,0,0-71.28,73.83l-28.34,107.83-28.34-107.83A104.56,104.56,0,0,0,881,1166.09l-41.72-12.35-21.74-6.44,50.26-14.88,13.2-3.91a104.57,104.57,0,0,0,71.28-73.84l28.34-107.83L1009,1054.67a105.25,105.25,0,0,0,14.47,32h0a104,104,0,0,0,55.28,41.32l1.52.47Z" transform="translate(-156.11 -237.26)"/><path class="cls-2" d="M1164.7,830.19c-55.22,0-100,37.5-100,83.76s44.77,83.76,100,83.76,100-37.5,100-83.76S1219.92,830.19,1164.7,830.19ZM1001.87,429.46a118.5,118.5,0,0,0-54.12-13,120,120,0,0,0-110.56,72.92c-89,208.68-122.42,450.07-97.17,690.76,32.48-82.76,73.68-159.68,125.14-227.61h0c7.38-140.45,37.12-275.81,88.33-399.78,82.36,43,160.33,96.76,232.36,159.94a808.14,808.14,0,0,1,150.36-39.29C1235.84,573.74,1122.7,490.76,1001.87,429.46Z" transform="translate(-156.11 -237.26)"/></svg>